<svg preserveAspectRatio="none" overflow="visible" style="display: block;" width="45" height="40" viewBox="0 0 45 40" fill="none" xmlns="http://www.w3.org/2000/svg">
<g id="Frame">
<path id="Vector" d="M17.3373 34.11C15.2071 34.11 13.3959 33.3642 11.904 31.8725C10.4123 30.3806 9.6665 28.5695 9.6665 26.4392C9.6665 25.5331 9.82039 24.6616 10.1282 23.8246C10.4357 22.9879 10.8779 22.2202 11.4548 21.5213L17.4357 14.3579L13.984 7.44336H32.0223L28.5919 14.3579L34.5448 21.5213C35.1401 22.2202 35.5871 22.9879 35.8857 23.8246C36.184 24.6616 36.3353 25.5331 36.3394 26.4392C36.3394 28.5695 35.593 30.3806 34.1003 31.8725C32.6075 33.3642 30.804 34.11 28.6898 34.11H17.3373ZM18.7211 13.7467H27.3107L29.7553 8.85378H16.2511L18.7211 13.7467ZM17.3373 32.6996H28.6623C30.4065 32.6996 31.8859 32.087 33.1007 30.8617C34.3154 29.6361 34.9228 28.162 34.9228 26.4392C34.9228 25.7025 34.8001 24.9916 34.5548 24.3063C34.3096 23.6207 33.9529 22.9952 33.4848 22.4296L27.4261 15.1571H18.609L12.5532 22.4263C12.0854 23.006 11.7223 23.6356 11.464 24.315C11.2059 24.9945 11.0769 25.7025 11.0769 26.4392C11.0769 28.162 11.6896 29.6361 12.9148 30.8617C14.1404 32.087 15.6146 32.6996 17.3373 32.6996Z" fill="#BEC8C8"/>
<path id="Vector_2" d="M23.2272 29.0684V27.8096C22.6794 27.7492 22.2159 27.5684 21.8367 27.2671C21.4575 26.9658 21.1785 26.5651 20.9995 26.0651L21.4876 25.8455C21.6764 26.3136 21.9331 26.6712 22.2578 26.9185C22.5825 27.1658 23.0071 27.2895 23.5317 27.2895C24.0287 27.2895 24.4784 27.1627 24.8808 26.9091C25.2832 26.6555 25.4844 26.2604 25.4844 25.7238C25.4844 25.2486 25.3313 24.8708 25.0253 24.5902C24.7191 24.3096 24.1753 24.0427 23.3939 23.7895C22.6299 23.544 22.0778 23.2557 21.7376 22.9243C21.3973 22.5929 21.2272 22.157 21.2272 21.6165C21.2272 21.0675 21.4394 20.6175 21.8637 20.2663C22.2882 19.9151 22.7427 19.7281 23.2272 19.7054V18.4434H23.7559V19.7054C24.1753 19.7385 24.5402 19.8462 24.8508 20.0285C25.1613 20.2108 25.4203 20.4784 25.6278 20.8312L25.1639 21.0796C25.0063 20.8103 24.7943 20.5949 24.5279 20.4334C24.2617 20.2718 23.9266 20.191 23.5228 20.191C23.0373 20.191 22.6214 20.3198 22.2753 20.5774C21.929 20.835 21.7559 21.1805 21.7559 21.614C21.7559 22.0112 21.8922 22.3377 22.1647 22.5937C22.4371 22.8495 22.9937 23.11 23.8345 23.3752C24.5917 23.6225 25.1441 23.9275 25.4917 24.2901C25.8394 24.6527 26.0133 25.1239 26.0133 25.7038C26.0133 26.3077 25.8005 26.7968 25.375 27.1713C24.9495 27.5458 24.4098 27.7575 23.7559 27.8063V29.0684H23.2272Z" fill="#BEC8C8" stroke="#DEE3E5" stroke-width="0.5"/>
</g>
</svg>
